HIERARCHY
ROOT Hips
{
 OFFSET 0.000000 0.000000 0.000000
 CHANNELS 6 Xposition Yposition Zposition Yrotation Xrotation Zrotation
 JOINT Chest
 {
  OFFSET 0.000000 9.585900 0.002600
  CHANNELS 3 Yrotation Xrotation Zrotation
  JOINT Chest2
  {
   OFFSET 0.000000 9.601200 -0.005300
   CHANNELS 3 Yrotation Xrotation Zrotation
   JOINT Chest3
   {
    OFFSET 0.000000 9.561800 0.000000
    CHANNELS 3 Yrotation Xrotation Zrotation
    JOINT Chest4
    {
     OFFSET 0.000000 9.552100 0.000000
     CHANNELS 3 Yrotation Xrotation Zrotation
     JOINT Neck
     {
      OFFSET 0.000000 14.453000 0.000000
      CHANNELS 3 Yrotation Xrotation Zrotation
      JOINT Head
      {
       OFFSET 0.000000 8.936500 -0.011300
       CHANNELS 3 Yrotation Xrotation Zrotation
       End Site
       {
        OFFSET 0.000000 17.073600 -0.006000
       }
      }
     }
     JOINT RightCollar
     {
      OFFSET -2.921100 9.558500 0.000000
      CHANNELS 3 Yrotation Xrotation Zrotation
      JOINT RightShoulder
      {
       OFFSET -13.519700 0.000000 0.000000
       CHANNELS 3 Yrotation Xrotation Zrotation
       JOINT RightElbow
       {
        OFFSET 0.000000 -29.696600 0.000000
        CHANNELS 3 Yrotation Xrotation Zrotation
        JOINT RightWrist
        {
         OFFSET 0.000000 -24.004700 0.000000
         CHANNELS 3 Yrotation Xrotation Zrotation
         End Site
         {
          OFFSET 0.000000 -17.728500 0.000000
         }
        }
       }
      }
     }
     JOINT LeftCollar
     {
      OFFSET 2.921100 9.558500 0.000000
      CHANNELS 3 Yrotation Xrotation Zrotation
      JOINT LeftShoulder
      {
       OFFSET 13.519700 0.000000 0.000000
       CHANNELS 3 Yrotation Xrotation Zrotation
       JOINT LeftElbow
       {
        OFFSET 0.000000 -29.696600 0.000000
        CHANNELS 3 Yrotation Xrotation Zrotation
        JOINT LeftWrist
        {
         OFFSET 0.000000 -24.004700 0.000000
         CHANNELS 3 Yrotation Xrotation Zrotation
         End Site
         {
          OFFSET 0.000000 -17.728500 0.000000
         }
        }
       }
      }
     }
    }
   }
  }
 }
 JOINT RightHip
 {
  OFFSET -7.771700 -0.012900 -0.001300
  CHANNELS 3 Yrotation Xrotation Zrotation
  JOINT RightKnee
  {
   OFFSET 0.000000 -40.869800 0.001200
   CHANNELS 3 Yrotation Xrotation Zrotation
   JOINT RightAnkle
   {
    OFFSET 0.000000 -39.717900 0.002100
    CHANNELS 3 Yrotation Xrotation Zrotation
    JOINT RightToe
    {
     OFFSET 0.000000 -4.965400 11.033500
     CHANNELS 3 Yrotation Xrotation Zrotation
     End Site
     {
      OFFSET 0.000000 -1.423100 5.872300
     }
    }
   }
  }
 }
 JOINT LeftHip
 {
  OFFSET 7.771700 -0.012900 -0.001300
  CHANNELS 3 Yrotation Xrotation Zrotation
  JOINT LeftKnee
  {
   OFFSET 0.000000 -40.869800 0.001200
   CHANNELS 3 Yrotation Xrotation Zrotation
   JOINT LeftAnkle
   {
    OFFSET 0.000000 -39.717900 0.002100
    CHANNELS 3 Yrotation Xrotation Zrotation
    JOINT LeftToe
    {
     OFFSET 0.000000 -4.965400 11.033500
     CHANNELS 3 Yrotation Xrotation Zrotation
     End Site
     {
      OFFSET 0.000000 -1.423100 5.872300
     }
    }
   }
  }
 }
}
MOTION
Frames: 5
Frame Time: 0.008333
-14.103361 57.747655 59.999229 -179.848358 -28.263778 -1.708393 3.544491 20.940603 4.185301 0.393517 2.834654 0.304492 0.649650 4.618080 0.506636 2.840028 17.987772 2.337714 -0.439169 9.390625 -2.244525 0.195633 -18.336125 -4.170859 4.772483 -3.893905 -1.290858 17.657213 -18.497082 -22.797894 113.230699 -80.121064 -69.392843 14.293884 -7.357155 -44.379398 -8.411881 -4.578515 -3.391935 2.105084 -19.020102 4.427462 -162.365922 -43.641222 153.450454 -16.356139 -21.716441 35.901747 8.713492 -42.734422 -1.913849 -4.221590 67.702765 -7.700318 3.808168 4.225457 9.025700 -0.491669 0.717511 -0.220869 -8.472684 -50.376532 1.562667 28.537149 66.392960 30.043010 -13.950983 30.322793 -0.254350 0.151116 -15.758084 -6.565669
-14.105393 57.748799 59.995973 -179.874580 -28.265697 -1.697219 3.553602 20.941835 4.177888 0.393049 2.831651 0.303737 0.651256 4.614773 0.505597 2.843031 17.984904 2.337863 -0.448491 9.378070 -2.244916 0.178048 -18.359702 -4.167681 4.773086 -3.902364 -1.291942 17.657759 -18.498352 -22.803773 113.202836 -80.126442 -69.356168 14.296550 -7.356615 -44.365018 -8.409190 -4.577678 -3.388723 2.135214 -19.011083 4.412243 -162.367191 -43.640640 153.445086 -16.372952 -21.706676 35.914146 8.728870 -42.738878 -1.917427 -4.203500 67.712563 -7.677780 3.810561 4.235593 9.018161 -0.487846 0.704326 -0.220430 -8.459056 -50.369280 1.569277 28.533292 66.404032 30.029370 -13.914722 30.282780 -0.224380 0.137525 -15.726171 -6.577123
-14.106869 57.749580 59.993702 -179.897801 -28.263197 -1.690289 3.565898 20.933202 4.177989 0.392369 2.829558 0.303339 0.647905 4.610419 0.504823 2.841795 17.981098 2.335729 -0.456483 9.368912 -2.246413 0.163568 -18.376911 -4.167200 4.781327 -3.898824 -1.291862 17.663136 -18.516450 -22.830233 113.159816 -80.154799 -69.300016 14.293640 -7.351663 -44.360433 -8.401160 -4.568850 -3.388710 2.148929 -19.004521 4.404683 -162.349629 -43.642982 153.448420 -16.379858 -21.707636 35.915505 8.744722 -42.744586 -1.917849 -4.181961 67.717463 -7.651650 3.805051 4.241189 9.008571 -0.481499 0.698420 -0.216112 -8.451840 -50.366079 1.580818 28.515505 66.414422 30.003466 -13.875484 30.250403 -0.195270 0.123510 -15.697966 -6.588906
-14.106350 57.749484 59.993457 -179.920460 -28.250116 -1.694150 3.581419 20.912846 4.189216 0.395532 2.831111 0.303018 0.644110 4.605537 0.504692 2.837806 17.972948 2.334820 -0.460852 9.367148 -2.248827 0.162535 -18.377891 -4.168885 4.792299 -3.884297 -1.292965 17.663640 -18.528288 -22.840171 113.150954 -80.156138 -69.284049 14.286754 -7.347092 -44.354817 -8.390692 -4.553611 -3.392705 2.157985 -19.004586 4.399328 -162.339888 -43.641779 153.458532 -16.384305 -21.705654 35.913534 8.752252 -42.760879 -1.905268 -4.151562 67.715520 -7.617281 3.797560 4.251755 9.002140 -0.478598 0.692289 -0.214405 -8.453126 -50.376649 1.607931 28.500588 66.423542 29.986235 -13.850029 30.233966 -0.175232 0.115265 -15.682565 -6.598360
-14.106044 57.750065 59.992237 -179.942194 -28.246829 -1.695189 3.600040 20.905070 4.199683 0.393477 2.829937 0.302888 0.645836 4.600524 0.504946 2.834862 17.970121 2.334425 -0.460172 9.373427 -2.250842 0.150470 -18.391841 -4.168931 4.801129 -3.886075 -1.300547 17.658374 -18.526787 -22.834843 113.172409 -80.152322 -69.300795 14.290553 -7.345737 -44.338557 -8.392569 -4.552098 -3.388982 2.174176 -18.999228 4.385167 -162.319322 -43.631937 153.458247 -16.377224 -21.699596 35.910399 8.764515 -42.766735 -1.892445 -4.147473 67.715159 -7.612874 3.796059 4.257335 9.003571 -0.476322 0.688261 -0.214490 -8.447414 -50.375967 1.627697 28.473272 66.432212 29.963079 -13.848867 30.214773 -0.178597 0.125460 -15.667627 -6.602010
